# xmcd CD database file
#
# Track frame offsets:
#	150
#	10286
#	25913
#	49693
#	65441
#	89484
#	103992
#	121908
#	135329
#
# Disc length: 2069 seconds
#
# Revision: 0
# Processed by: cddbd v1.4PL0 Copyright (c) Steve Scherf et al.
# Submitted via: CDex 1.50beta10
#
DISCID=73081309
DTITLE=Kern Pratt and The Accused - Somwhere South Of Memphis
DYEAR=2002
DGENRE=Blues
TTITLE0=WhatTime Is It?
TTITLE1=Somewhere South Of Memphis
TTITLE2=Torn Between Love And Hate
TTITLE3=Crosscut Saw
TTITLE4=Something's Going Wrong
TTITLE5=Lovin' That Feeling
TTITLE6=Everyday I Have The Blues
TTITLE7=If Ya Love Me Like You Say
TTITLE8=I've Got A Problem
EXTD=YEAR: 2002
EXTT0=
EXTT1=
EXTT2=
EXTT3=
EXTT4=
EXTT5=
EXTT6=
EXTT7=
EXTT8=
PLAYORDER=
